<svg xmlns="http://www.w3.org/2000/svg" viewBox="0 0 320 320" fill="none">
  <!-- Flor pequeña tipo margarita -->
  <g transform="translate(160,160)">
    <ellipse cx="0" cy="-65" rx="18" ry="40" fill="#F2D4CC" opacity="0.75" transform="rotate(0)"/>
    <ellipse cx="0" cy="-65" rx="18" ry="40" fill="#F2D4CC" opacity="0.65" transform="rotate(36)"/>
    <ellipse cx="0" cy="-65" rx="18" ry="40" fill="#F2D4CC" opacity="0.75" transform="rotate(72)"/>
    <ellipse cx="0" cy="-65" rx="18" ry="40" fill="#F2D4CC" opacity="0.65" transform="rotate(108)"/>
    <ellipse cx="0" cy="-65" rx="18" ry="40" fill="#F2D4CC" opacity="0.75" transform="rotate(144)"/>
    <ellipse cx="0" cy="-65" rx="18" ry="40" fill="#F2D4CC" opacity="0.65" transform="rotate(180)"/>
    <ellipse cx="0" cy="-65" rx="18" ry="40" fill="#F2D4CC" opacity="0.75" transform="rotate(216)"/>
    <ellipse cx="0" cy="-65" rx="18" ry="40" fill="#F2D4CC" opacity="0.65" transform="rotate(252)"/>
    <ellipse cx="0" cy="-65" rx="18" ry="40" fill="#F2D4CC" opacity="0.75" transform="rotate(288)"/>
    <ellipse cx="0" cy="-65" rx="18" ry="40" fill="#F2D4CC" opacity="0.65" transform="rotate(324)"/>
    <!-- Centro dorado -->
    <circle cx="0" cy="0" r="28" fill="#C9A84C" opacity="0.8"/>
    <circle cx="0" cy="0" r="18" fill="#E8C060" opacity="0.7"/>
  </g>
  <!-- Tallo y hojas -->
  <path d="M160,188 Q155,230 158,270" stroke="#4A7C40" stroke-width="3" stroke-linecap="round" fill="none" opacity="0.6"/>
  <path d="M156,220 Q130,200 125,215 Q140,230 156,220Z" fill="#8DB87A" opacity="0.55"/>
  <path d="M159,245 Q185,230 188,245 Q175,260 159,245Z" fill="#4A7C40" opacity="0.5"/>
</svg>
