<svg xmlns="http://www.w3.org/2000/svg" viewBox="0 0 300 380" fill="none">
  <!-- Rama con hojas — esquina derecha -->
  <!-- Tallo principal -->
  <path d="M260,360 Q230,280 200,200 Q170,120 150,40"
    stroke="#4A7C40" stroke-width="5" stroke-linecap="round" fill="none" opacity="0.5"/>
  <!-- Hoja 1 -->
  <path d="M215,240 Q160,200 155,230 Q170,270 215,240Z" fill="#4A7C40" opacity="0.55"/>
  <path d="M215,240 Q180,225 175,235" stroke="#2D5A27" stroke-width="1" fill="none" opacity="0.4"/>
  <!-- Hoja 2 -->
  <path d="M225,195 Q275,160 270,185 Q255,215 225,195Z" fill="#8DB87A" opacity="0.5"/>
  <!-- Hoja 3 -->
  <path d="M200,150 Q145,125 148,148 Q162,175 200,150Z" fill="#4A7C40" opacity="0.45"/>
  <!-- Hoja 4 -->
  <path d="M185,108 Q230,88 228,110 Q215,130 185,108Z" fill="#B8C9A8" opacity="0.55"/>
  <!-- Hoja 5 pequeña -->
  <path d="M165,70 Q130,52 133,68 Q145,85 165,70Z" fill="#8DB87A" opacity="0.5"/>
  <!-- Florecita decorativa -->
  <circle cx="148" cy="38" r="12" fill="#F2D4CC" opacity="0.7"/>
  <circle cx="148" cy="38" r="6" fill="#C9A84C" opacity="0.8"/>
</svg>
