<svg xmlns="http://www.w3.org/2000/svg" viewBox="0 0 350 450" fill="none">
  <!-- Hoja grande izquierda -->
  <path d="M175,420 Q40,300 60,150 Q80,30 175,20 Q270,30 290,150 Q310,300 175,420Z"
    fill="#4A7C40" opacity="0.5"/>
  <path d="M175,420 Q40,300 60,150 Q80,30 175,20 Q270,30 290,150 Q310,300 175,420Z"
    stroke="#2D5A27" stroke-width="1.5" fill="none" opacity="0.3"/>
  <!-- Nervio central -->
  <path d="M175,420 Q172,280 175,20" stroke="#2D5A27" stroke-width="2" stroke-linecap="round" fill="none" opacity="0.4"/>
  <!-- Nervios laterales -->
  <path d="M175,320 Q130,290 100,295" stroke="#2D5A27" stroke-width="1" fill="none" opacity="0.3"/>
  <path d="M175,280 Q220,250 245,258" stroke="#2D5A27" stroke-width="1" fill="none" opacity="0.3"/>
  <path d="M175,230 Q125,200 98,208" stroke="#2D5A27" stroke-width="1" fill="none" opacity="0.3"/>
  <path d="M175,190 Q218,165 240,172" stroke="#2D5A27" stroke-width="1" fill="none" opacity="0.3"/>
  <path d="M175,150 Q130,120 108,130" stroke="#2D5A27" stroke-width="1" fill="none" opacity="0.3"/>
  <!-- Segunda hoja más pequeña -->
  <path d="M80,380 Q20,310 40,220 Q60,140 100,120 Q130,180 110,280 Q100,340 80,380Z"
    fill="#8DB87A" opacity="0.4"/>
</svg>
